<svg width="525px" height="525px" viewBox="0 0 525 525" version="1.1"
    xmlns="http://www.w3.org/2000/svg"
    xmlns:xlink="http://www.w3.org/1999/xlink">
    <g id="Page-1" stroke="none" stroke-width="1" fill="none" fill-rule="evenodd">
        <path d="M125,1.13686838e-13 C152.614237,1.069233e-13 175,22.3857625 175,50 L175,50 L175,137 L350,137 L350,50 C350,22.3857625 372.385763,1.18759491e-13 400,1.13686838e-13 L400,1.13686838e-13 L475,1.13686838e-13 C502.614237,1.069233e-13 525,22.3857625 525,50 L525,50 L525,125 C525,152.614237 502.614237,175 475,175 L475,175 L387,175 L387,350 L475,350 C502.614237,350 525,372.385763 525,400 L525,400 L525,475 C525,502.614237 502.614237,525 475,525 L475,525 L400,525 C372.385763,525 350,502.614237 350,475 L350,475 L350,387 L175,387 L175,475 C175,502.614237 152.614237,525 125,525 L125,525 L50,525 C22.3857625,525 3.38176876e-15,502.614237 0,475 L0,475 L0,400 C-5.07265313e-15,372.385763 22.3857625,350 50,350 L50,350 L137,350 L137,175 L50,175 C22.3857625,175 3.38176876e-15,152.614237 0,125 L0,125 L0,50 C-5.07265313e-15,22.3857625 22.3857625,1.18759491e-13 50,1.13686838e-13 L50,1.13686838e-13 Z M137,387 L63,387 C49.1928813,387 38,398.192881 38,412 L38,412 L38,462 C38,475.807119 49.1928813,487 63,487 L63,487 L112,487 C125.807119,487 137,475.807119 137,462 L137,462 L137,387 Z M462,387 L387,387 L387,462 C387,475.807119 398.192881,487 412,487 L412,487 L462,487 C475.807119,487 487,475.807119 487,462 L487,462 L487,412 C487,398.192881 475.807119,387 462,387 L462,387 Z M350,175 L175,175 L175,350 L350,350 L350,175 Z M462,38 L412,38 C398.192881,38 387,49.1928813 387,63 L387,137 L462,137 C475.807119,137 487,125.807119 487,112 L487,63 C487,49.1928813 475.807119,38 462,38 Z M112,38 L63,38 C49.1928813,38 38,49.1928813 38,63 L38,63 L38,112 C38,125.807119 49.1928813,137 63,137 L63,137 L137,137 L137,63 C137,49.1928813 125.807119,38 112,38 L112,38 Z" id="Path-6" fill="#6466E9"></path>
    </g>
</svg>
